<?xml version="1.0" encoding="UTF-8" standalone="no"?>
<!-- Created with Inkscape (http://www.inkscape.org/) -->

<svg
   width="210mm"
   height="297mm"
   viewBox="0 0 210 297"
   version="1.1"
   id="svg1"
   inkscape:version="1.3.2 (091e20e, 2023-11-25)"
   sodipodi:docname="ChessPiece_Assets.svg"
   xmlns:inkscape="http://www.inkscape.org/namespaces/inkscape"
   xmlns:sodipodi="http://sodipodi.sourceforge.net/DTD/sodipodi-0.dtd"
   xmlns="http://www.w3.org/2000/svg"
   xmlns:svg="http://www.w3.org/2000/svg">
  <sodipodi:namedview
     id="namedview1"
     pagecolor="#ffffff"
     bordercolor="#000000"
     borderopacity="0.25"
     inkscape:showpageshadow="2"
     inkscape:pageopacity="0.0"
     inkscape:pagecheckerboard="0"
     inkscape:deskcolor="#d1d1d1"
     inkscape:document-units="mm"
     inkscape:zoom="1.4142136"
     inkscape:cx="498.15673"
     inkscape:cy="225.21351"
     inkscape:window-width="2560"
     inkscape:window-height="1440"
     inkscape:window-x="0"
     inkscape:window-y="0"
     inkscape:window-maximized="0"
     inkscape:current-layer="layer1" />
  <defs
     id="defs1" />
  <g
     inkscape:label="Layer 1"
     inkscape:groupmode="layer"
     id="layer1">
    <rect
       style="fill:#787777;fill-opacity:0.02;stroke:none;stroke-width:0.0399656;stroke-dasharray:none"
       id="rect20"
       width="16.893368"
       height="16.893368"
       x="78.649292"
       y="34.25721"
       ry="0"
       inkscape:export-filename="Pawn_BLACK.png"
       inkscape:export-xdpi="96"
       inkscape:export-ydpi="96" />
    <path
       id="path37"
       style="fill:#ffffff;stroke-width:0.0287742"
       d="m 87.09669,37.973419 c -0.87915,-1e-5 -1.6005,0.72105 -1.60055,1.60028 a 0.39973101,0.39973101 0 0 0 0,0.002 c 1.4e-4,0.048 0.003,0.0925 0.006,0.13319 0.003,0.0353 0.007,0.0647 0.0104,0.0874 0.002,0.0108 0.003,0.0214 0.004,0.0318 0.0558,0.34859 0.23229,0.65054 0.4746,0.88571 -0.20689,0.17951 -0.35696,0.3175 -0.5738,0.48331 -0.33095,0.25309 -0.40435,0.63237 -0.41307,0.89807 -0.009,0.2657 0.0472,0.48107 0.0472,0.48107 a 0.39973101,0.39973101 0 0 0 0.38779,0.30207 l 0.35153,-2.8e-4 c -0.0164,0.0861 -0.0168,0.15043 -0.0644,0.2706 -0.16602,0.41954 -0.57045,1.04363 -1.58399,1.75201 a 0.39973101,0.39973101 0 0 0 -0.12504,0.14247 c 0,0 -0.64047,1.08837 -0.23632,2.13614 a 0.39973101,0.39973101 0 0 0 0.37288,0.25572 h 5.88269 a 0.39973101,0.39973101 0 0 0 0.37288,-0.25572 c 0.40411,-1.0477 -0.23575,-2.13614 -0.23575,-2.13614 a 0.39973101,0.39973101 0 0 0 -0.12533,-0.14247 c -1.01354,-0.70838 -1.41797,-1.33247 -1.58399,-1.75201 -0.0476,-0.12017 -0.0479,-0.1845 -0.0644,-0.2706 l 0.35153,2.8e-4 a 0.39973101,0.39973101 0 0 0 0.38806,-0.30235 c 0,0 0.0557,-0.21539 0.047,-0.48107 -0.009,-0.26567 -0.0825,-0.64473 -0.41335,-0.89779 -0.21687,-0.16584 -0.36699,-0.3038 -0.57379,-0.48331 0.24264,-0.23548 0.41957,-0.53796 0.47516,-0.88711 a 0.39973101,0.39973101 0 0 0 0,-5.7e-4 c 8.8e-4,-0.008 0.003,-0.0165 0.004,-0.0261 a 0.39973101,0.39973101 0 0 0 5.8e-4,-0.003 c 0.004,-0.0258 0.007,-0.0553 0.0102,-0.0882 0.004,-0.0411 0.006,-0.0855 0.006,-0.13291 a 0.39973101,0.39973101 0 0 0 0,-0.003 c -5e-5,-0.87912 -0.72112,-1.60028 -1.60028,-1.60028 z" />
    <path
       id="path12"
       style="fill:#000000;fill-opacity:1;stroke:none;stroke-width:0.0287742;stroke-opacity:0.945513"
       d="m 87.0966,38.372929 c -0.66319,-10e-6 -1.20083,0.5376 -1.20086,1.20078 1.4e-4,0.0336 0.002,0.0668 0.005,0.0999 0.002,0.023 0.005,0.0455 0.008,0.068 8.8e-4,0.007 0.002,0.0147 0.004,0.0219 0.0668,0.41984 0.35018,0.76704 0.73299,0.92258 l -1.4e-4,2.8e-4 c 0,0 -0.59485,0.53066 -0.9837,0.82801 -0.38884,0.29735 -0.22117,0.96391 -0.22117,0.96391 l 0.79016,-4.3e-4 c 0,0 0.2695,1.26342 -1.85772,2.75018 0,0 -0.52611,1.00645 -0.21731,1.80701 h 5.88265 c 0.30878,-0.80056 -0.21732,-1.80702 -0.21732,-1.80702 -2.12722,-1.48676 -1.85772,-2.75017 -1.85772,-2.75017 l 0.79017,4.3e-4 c 0,0 0.16766,-0.66656 -0.22119,-0.96391 -0.38884,-0.29736 -0.98369,-0.82801 -0.98369,-0.82801 l -1.4e-4,-2.9e-4 c 0.38281,-0.15554 0.66614,-0.50274 0.73299,-0.92257 8.8e-4,-0.007 0.003,-0.0146 0.004,-0.022 0.004,-0.0225 0.006,-0.0451 0.008,-0.068 0.003,-0.033 0.004,-0.0663 0.005,-0.0998 -4e-5,-0.66318 -0.53768,-1.20079 -1.20086,-1.20079 z"
       sodipodi:nodetypes="cccccccsccccccccscccccccc" />
    <rect
       style="fill:#787777;fill-opacity:0.02;stroke:none;stroke-width:0.0399656;stroke-dasharray:none"
       id="rect42"
       width="16.893368"
       height="16.893368"
       x="78.650391"
       y="54.894707"
       ry="0"
       inkscape:export-filename="Knight_BLACK.png"
       inkscape:export-xdpi="96"
       inkscape:export-ydpi="96" />
    <path
       id="path40"
       style="fill:#ffffff;stroke-width:0;stroke-opacity:0.673077"
       d="m 86.80751,56.564318 c -0.39353,-0.0044 -0.76215,0.02813 -1.08354,0.120185 -0.77726,0.222641 -1.26509,0.521796 -1.55679,0.802359 -0.14586,0.140282 -0.24387,0.263585 -0.30703,0.430197 -0.0316,0.08331 -0.0853,0.178173 -0.0135,0.382645 0.0359,0.10224 0.14085,0.232844 0.27182,0.286049 0.13098,0.0532 0.24592,0.03725 0.32088,0.01573 -0.10683,0.03067 -0.12475,0.004 -0.10673,0.01046 0.018,0.0066 0.0667,0.03011 0.12094,0.06776 0.0517,0.03595 0.0991,0.103232 0.15351,0.157627 -0.18735,0.368697 -0.37441,0.732344 -0.37441,0.732344 -0.0394,0.06697 -0.0608,0.142887 -0.0625,0.220527 -6.5e-4,0.0301 -0.004,0.228518 -0.002,0.417467 l -0.44031,1.002667 c -0.0126,0.01869 -0.0937,0.141394 -0.20855,0.267703 -0.0797,0.08767 -0.2348,0.24665 -0.29839,0.508448 -0.0636,0.261799 0.004,0.574041 0.18383,0.860767 0.28806,0.460192 0.77752,0.652605 1.16891,0.623392 0.39138,-0.02922 0.6907,-0.159016 0.89933,-0.474377 l -0.11682,0.120934 c 0.0603,-0.04254 0.08,-0.04004 0.13067,-0.07226 -0.0699,0.07379 -0.12324,0.152511 -0.19581,0.225769 -0.25171,0.25406 -0.50739,0.497147 -0.70165,0.794123 -0.19427,0.296975 -0.31923,0.716639 -0.17073,1.115739 0.0852,0.228861 0.19918,0.344993 0.25759,0.393879 -0.005,0.02652 -0.005,0.04819 -0.0419,0.144521 0.0424,-0.112225 -0.14004,0.08127 -0.16212,0.421211 -0.0156,0.241327 0.11852,0.459703 0.30927,0.672813 -0.10576,0.107652 -0.18384,0.209269 -0.21268,0.251229 -0.0479,0.06969 -0.0285,0.07899 -0.26357,0.17073 -0.0633,0.02478 -0.12019,0.06342 -0.16658,0.113072 0,0 -0.17328,0.180103 -0.29952,0.447045 -0.12625,0.266943 -0.22674,0.720665 0.0442,1.112745 0.0851,0.122916 0.22496,0.196249 0.37441,0.19619 h 5.77451 c 0.14945,5.9e-5 0.2894,-0.07327 0.37441,-0.19619 0.27092,-0.392081 0.17043,-0.845802 0.0442,-1.112745 -0.12624,-0.266942 -0.29952,-0.447045 -0.29952,-0.447045 -0.0464,-0.04966 -0.10338,-0.0883 -0.16662,-0.113071 -0.23515,-0.09175 -0.2157,-0.101043 -0.26358,-0.170731 -0.0313,-0.04555 -0.12253,-0.160587 -0.24524,-0.277812 6.6e-4,-6.7e-4 9.8e-4,-8.18e-4 0.001,-0.0015 0.18106,-0.245021 0.31043,-0.679263 0.1505,-1.136706 -0.0212,-0.06073 -0.0212,-0.07532 -0.0292,-0.110826 0.0165,-0.01078 0.0165,-0.01091 0.036,-0.02359 0.1361,-0.09279 0.21142,-0.251887 0.19693,-0.415969 0.33165,6.88e-4 0.5526,-0.342284 0.41485,-0.643984 -0.1459,-0.278194 -0.15242,-0.432337 -0.14528,-0.632752 0.003,-0.104676 0.0179,-0.230814 0.0203,-0.374409 0.0369,-0.0064 0.0729,-0.01735 0.10705,-0.03258 0.28323,-0.307258 0.48105,-0.713364 0.55936,-1.1412 0.0233,-0.12729 0.0288,-0.259099 0.0198,-0.392755 0.0687,-0.04402 0.12432,-0.1057 0.16099,-0.178593 0.0598,-0.598026 0.0427,-1.02186 -0.0801,-1.348248 0.0721,-0.115991 0.0884,-0.258259 0.0442,-0.387514 -0.0981,-0.280682 -0.27371,-0.674102 -0.55263,-1.015398 -0.0341,-0.04162 -0.0925,-0.06716 -0.13029,-0.10708 0.0177,-0.0763 0.0153,-0.155872 -0.006,-0.231012 -0.25067,-0.482794 -0.44127,-0.7594 -0.74358,-0.902326 -0.0249,-0.01176 -0.039,-0.0089 -0.0621,-0.01835 0.0598,-0.181229 1.4e-4,-0.380514 -0.14939,-0.499087 -0.65292,-0.453417 -1.61478,-0.618467 -2.48046,-0.628259 z"
       sodipodi:nodetypes="sssssscsscccccsssscccsssccscsccsccccsccsccsccccsccsccccsccsccss" />
    <path
       id="rect34"
       style="fill:#000000;fill-opacity:1;stroke:none;stroke-width:0;stroke-opacity:0.673077"
       d="m 86.80229,57.019365 c -0.36234,-0.0041 -0.69754,0.02929 -0.95304,0.102466 -1.44189,0.41302 -1.69079,1.087071 -1.53532,1.042439 0.17951,-0.05152 0.60434,0.230852 0.84294,0.59774 -0.41314,0.835225 -0.53172,1.037666 -0.53172,1.037666 -0.002,0.09499 -0.0227,0.260134 -0.004,0.507767 l -0.49727,1.132313 c 0,0 -0.1148,0.176021 -0.26781,0.344329 -0.15302,0.168324 -0.33976,0.384098 -0.0658,0.821854 0.41962,0.67036 1.14495,0.379127 1.30348,0.139486 1.13195,-0.798794 1.2624,-0.04102 1.67423,-1.118955 -0.14549,1.69843 -2.28999,2.408348 -1.92277,3.395272 0.13604,0.365613 0.45554,0.221638 0.21496,0.858105 -0.0616,0.162993 -0.37916,0.329712 0.25178,0.840269 l 3.54215,0.02299 c 0,0 0.57169,-0.294489 0.34433,-0.944835 -0.16448,-0.470513 -0.13322,-0.456625 0.18748,-0.665667 -0.44699,-0.514816 -0.37104,-0.462809 -0.20274,-1.166661 0.26013,0.306028 0.32174,0.634165 0.66044,0.699223 -0.36713,-0.700035 -0.0886,-1.078728 -0.21075,-1.54437 L 89.457,62.283453 c 0.20642,0.396395 0.21588,0.01497 0.43716,0.822138 0.41372,-0.448823 0.71647,-1.44639 0.17804,-1.630728 -0.24423,-0.08362 -0.39071,-0.205142 -0.24845,-0.339752 0.28141,0.295298 0.31514,-0.160846 0.69229,0.521122 0.15699,-1.567958 -0.38455,-1.571939 -0.68829,-1.449547 -0.12746,0.05138 -0.7602,-0.472177 -0.45423,-0.411211 0.68796,0.383667 0.60711,-0.142079 1.12964,0.32048 -0.16581,-0.474304 -0.67422,-1.465873 -1.28306,-1.200819 -0.22206,0.09668 -0.5187,-0.225717 -0.27707,-0.162768 0.15334,0.146162 0.40052,-0.304548 0.89627,0.06946 -0.47653,-0.917841 -0.55415,-0.668696 -1.18288,-0.844368 -0.64046,-0.108887 0.37181,-0.411214 0.37181,-0.411214 -0.50025,-0.347394 -1.42881,-0.537863 -2.22599,-0.546881 z m -1.2682,2.566883 c 0.0123,-1.55e-4 0.42808,-0.243688 0.43162,0.04823 0.10015,0.02264 -0.34867,0.581114 -0.78939,0.615102 0.15547,-0.320887 0.27154,-0.66184 0.35777,-0.663332 z m -0.28438,7.422957 c -0.3683,0.198097 -0.18757,0.418896 -0.77873,0.649544 0,0 -0.51647,0.551548 -0.21334,0.990248 h 5.77482 c 0.30313,-0.438702 -0.21323,-0.990248 -0.21323,-0.990248 -0.59117,-0.230648 -0.41043,-0.451447 -0.77874,-0.649544 z"
       sodipodi:nodetypes="sscccccccccssccsccccccscccccsccccssccccccccccc" />
    <rect
       style="fill:#787777;fill-opacity:0.02;stroke:none;stroke-width:0.0399656;stroke-dasharray:none"
       id="rect43"
       width="16.893368"
       height="16.893368"
       x="78.650391"
       y="76.714523"
       ry="0"
       inkscape:export-filename="Bishop_BLACK.png"
       inkscape:export-xdpi="96"
       inkscape:export-ydpi="96" />
    <path
       id="path39"
       style="fill:#ffffff;stroke-width:0.0276116"
       d="m 87.09716,79.400271 c -0.74351,5.4e-5 -1.35722,0.61363 -1.3572,1.3572 a 0.50850044,0.50850044 0 0 0 0,6.69e-4 c 3.5e-4,0.208812 0.0564,0.408149 0.14648,0.591856 -0.5894,0.670027 -1.10588,1.649811 -1.48267,2.653679 -0.22118,0.589326 -0.38561,1.173365 -0.45305,1.698501 -0.0675,0.525139 -0.0869,1.017313 0.24787,1.432934 0.20164,0.250264 0.44971,0.470322 0.7113,0.674264 -0.28554,0.222391 -0.65779,0.466532 -1.26079,0.741323 a 0.50850044,0.50850044 0 0 0 -0.18582,0.144793 c 0,0 -0.19985,0.245475 -0.3413,0.594526 -0.14144,0.349052 -0.25342,0.883126 0.042,1.382557 a 0.50850044,0.50850044 0 0 0 0.43772,0.249553 h 6.99084 a 0.50850044,0.50850044 0 0 0 0.43773,-0.249553 c 0.29545,-0.499432 0.18347,-1.033505 0.0421,-1.382557 -0.14143,-0.349051 -0.34131,-0.594526 -0.34131,-0.594526 a 0.50850044,0.50850044 0 0 0 -0.18582,-0.144793 c -0.603,-0.274792 -0.97524,-0.518932 -1.26077,-0.741323 0.26159,-0.203941 0.50965,-0.423995 0.71129,-0.674264 0.29818,-0.370096 0.30643,-0.805034 0.26657,-1.262116 -0.04,-0.457079 -0.16234,-0.961941 -0.3353,-1.482978 -0.34593,-1.042071 -0.88842,-2.136251 -1.47798,-2.88822 a 0.50850044,0.50850044 0 0 0 -0.18482,-0.09241 c 0.11202,-0.200176 0.1899,-0.417199 0.19015,-0.651241 a 0.50850044,0.50850044 0 0 0 0,-6.69e-4 c 4e-5,-0.743558 -0.61363,-1.357224 -1.3572,-1.3572 z" />
    <path
       id="path13"
       style="fill:#000000;fill-opacity:1;stroke:none;stroke-width:0.0276116"
       d="m 87.09706,79.908863 c -0.46871,3.3e-5 -0.84867,0.380021 -0.84865,0.84874 3.5e-4,0.242306 0.10414,0.472943 0.28529,0.633798 -1.16282,1.030849 -2.60087,4.603292 -1.93916,5.424608 0.28354,0.351942 0.70444,0.687255 1.13067,0.95202 -0.30249,0.353269 -0.85451,0.784688 -1.86537,1.245348 0,0 -0.62515,0.779875 -0.25819,1.400178 h 6.99083 c 0.36695,-0.620308 -0.25821,-1.400178 -0.25821,-1.400178 -1.01086,-0.460662 -1.56288,-0.892079 -1.86537,-1.245348 0.42627,-0.264772 0.84712,-0.600059 1.13069,-0.95202 0.58928,-0.731437 -0.48671,-3.643499 -1.5506,-5.000459 -0.95189,1.115186 -1.24836,3.702649 -1.24836,3.702649 l -0.51325,-0.277341 c 0.0276,-1.09204 0.57337,-3.025083 1.32801,-3.80535 l 0.0452,-0.04411 c 0.18122,-0.160854 0.28502,-0.391491 0.28528,-0.633797 2e-5,-0.468752 -0.37998,-0.848756 -0.84873,-0.84874 z"
       sodipodi:nodetypes="cccsccccccsccccccc" />
    <rect
       style="fill:#787777;fill-opacity:0.02;stroke:none;stroke-width:0.0399656;stroke-dasharray:none"
       id="rect44"
       width="16.893368"
       height="16.893368"
       x="78.650391"
       y="98.53434"
       ry="0"
       inkscape:export-filename="Rook_BLACK.png"
       inkscape:export-xdpi="96"
       inkscape:export-ydpi="96" />
    <path
       id="path38"
       style="fill:#ffffff;stroke-width:0.0284084"
       d="m 83.74001,101.21841 c -0.28587,1.2e-4 -0.5176,0.23184 -0.51772,0.51773 v 1.20346 c -7.6e-4,7.4e-4 -0.001,0.002 -0.002,0.002 v 1.6155 c -6e-5,0.14911 0.0641,0.29102 0.17617,0.38941 l 1.54764,1.357 -0.73522,3.61739 c -0.20775,0.14418 -0.35774,0.37497 -0.49941,0.61829 -0.07,0.10184 -0.0688,0.13602 -0.39794,0.26443 -0.0721,0.0282 -0.13673,0.0722 -0.18951,0.12869 0,0 -0.22407,0.23356 -0.38682,0.57744 -0.16274,0.34388 -0.28835,0.91182 0.0515,1.40374 0.0968,0.13987 0.25605,0.22332 0.42613,0.22326 h 7.77337 c 0.1701,6e-5 0.32936,-0.0834 0.42612,-0.22326 0.33991,-0.49192 0.2143,-1.05986 0.0515,-1.40374 -0.16275,-0.34388 -0.38681,-0.57744 -0.38681,-0.57744 -0.0527,-0.0565 -0.11753,-0.10048 -0.18952,-0.12869 -0.32915,-0.12842 -0.32825,-0.16254 -0.39832,-0.26443 -0.0504,-0.0733 -0.18347,-0.24032 -0.36789,-0.40128 l -0.83,-3.83291 1.54949,-1.35849 c 0.11202,-0.0984 0.17622,-0.2403 0.17614,-0.38941 v -1.6155 c -5.5e-4,-4.9e-4 -9.4e-4,-9.9e-4 -10e-4,-0.002 v -1.17009 c -1.3e-4,-0.28588 -0.23185,-0.51761 -0.51773,-0.51773 h -1.43526 c -0.27983,0.004 -0.50565,0.23011 -0.50994,0.50994 v -0.0248 c -1.2e-4,-0.28588 -0.23185,-0.51761 -0.51774,-0.51773 H 86.1086 c -0.19208,0.0448 -0.34204,0.19475 -0.38682,0.38682 -0.0445,-0.19304 -0.19527,-0.34378 -0.3883,-0.3883 z"
       sodipodi:nodetypes="cccccccccccsccccsccsccccccccccsccccc" />
    <path
       id="path22"
       style="fill:#000000;fill-opacity:1;stroke:none;stroke-width:0.0284084"
       d="m 83.73989,101.73612 v 1.20576 h -0.002 v 1.61554 l 1.77852,1.55941 -0.95918,4.29524 h -0.009 c -0.49576,0.26665 -0.25242,0.56382 -1.04818,0.87429 0,0 -0.69525,0.74241 -0.28721,1.33294 h 7.77349 c 0.40803,-0.59053 -0.28721,-1.33294 -0.28721,-1.33294 -0.79577,-0.31047 -0.55241,-0.60764 -1.04817,-0.87429 v 0 l -0.93011,-4.29524 1.77842,-1.55941 v -1.61554 h -0.001 v -1.17171 h -1.43517 v 1.15562 l -1.02787,-0.0115 v -1.17653 h -1.92673 v 1.17682 l -0.7749,0.009 v -1.18741 z"
       sodipodi:nodetypes="ccccccccccccccccccccccccccc" />
    <rect
       style="fill:#787777;fill-opacity:0.02;stroke:none;stroke-width:0.0399656;stroke-dasharray:none"
       id="rect45"
       width="16.893368"
       height="16.893368"
       x="78.650391"
       y="122.28002"
       ry="0"
       inkscape:export-filename="Queen_BLACK.png"
       inkscape:export-xdpi="96"
       inkscape:export-ydpi="96" />
    <path
       id="path41"
       style="fill:#ffffff;stroke-width:0.0260784"
       d="m 84.70389,125.1385 c -0.60215,2e-5 -1.15011,0.54798 -1.15013,1.15013 a 0.44678305,0.44678305 0 0 0 0,0.001 c 0.001,0.39795 0.23685,0.77546 0.57444,0.98155 l 0.11501,1.49422 -0.41468,-0.43988 c 0.0335,-0.10818 0.0556,-0.22044 0.0561,-0.3337 a 0.44678305,0.44678305 0 0 0 0,-3.2e-4 0.44678305,0.44678305 0 0 0 0,-9.5e-4 0.44678305,0.44678305 0 0 0 0,-6.3e-4 c -1e-5,-0.60215 -0.54798,-1.15011 -1.15013,-1.15013 -0.60215,2e-5 -1.15011,0.54798 -1.15012,1.15013 1e-5,0.47064 0.33765,0.89829 0.77137,1.06694 0.0907,0.75547 0.24336,2.03077 0.35733,2.70643 0.11479,0.68054 0.65064,1.1365 1.10822,1.49327 0.24223,0.18887 0.30396,0.20968 0.47234,0.31353 -0.0146,0.0369 -0.0374,0.0796 -0.046,0.11029 -0.0379,0.13434 -0.0489,0.19276 -0.0655,0.2253 -0.007,0.0143 -0.015,0.0265 -0.0325,0.0457 -0.0346,0.0381 -0.11408,0.10493 -0.29525,0.18749 a 0.44678305,0.44678305 0 0 0 -0.16322,0.12699 c 0,0 -0.18577,0.22869 -0.31731,0.55332 -0.13155,0.32463 -0.23418,0.81693 0.0375,1.27617 a 0.44678305,0.44678305 0 0 0 0.38442,0.21931 h 6.60268 a 0.44678305,0.44678305 0 0 0 0.38443,-0.21931 c 0.27167,-0.45924 0.16904,-0.95154 0.0375,-1.27617 -0.13155,-0.32463 -0.31731,-0.55332 -0.31731,-0.55332 a 0.44678305,0.44678305 0 0 0 -0.16322,-0.12699 c -0.18132,-0.0826 -0.26133,-0.14977 -0.29557,-0.18749 -0.0174,-0.0192 -0.0252,-0.0314 -0.0325,-0.0457 -0.0167,-0.0325 -0.0276,-0.091 -0.0655,-0.2253 -0.009,-0.0304 -0.0313,-0.0727 -0.0457,-0.10934 0.15981,-0.0979 0.22033,-0.11771 0.47234,-0.31416 0.45767,-0.35677 0.99342,-0.81299 1.10822,-1.49359 0.11398,-0.67577 0.26641,-1.95105 0.35701,-2.70643 0.43386,-0.16857 0.77168,-0.59619 0.77169,-1.06694 -2e-5,-0.60205 -0.54778,-1.14992 -1.14981,-1.15013 h -3.2e-4 c -0.60221,-6e-5 -1.15044,0.54791 -1.15045,1.15013 a 0.44678305,0.44678305 0 0 0 0,0.002 c 4.8e-4,0.11325 0.0226,0.22551 0.0561,0.33369 l -0.41468,0.43989 0.11501,-1.49422 c 0.33759,-0.20609 0.57332,-0.5836 0.57444,-0.98155 a 0.44678305,0.44678305 0 0 0 0,-3.2e-4 0.44678305,0.44678305 0 0 0 0,-3.3e-4 0.44678305,0.44678305 0 0 0 0,-3.2e-4 0.44678305,0.44678305 0 0 0 0,-3.2e-4 c -2e-5,-0.60215 -0.54798,-1.15011 -1.15013,-1.15013 -0.60215,2e-5 -1.15011,0.54798 -1.15013,1.15013 a 0.44678305,0.44678305 0 0 0 0,0.002 c 6.5e-4,0.17972 0.0563,0.3519 0.1377,0.51204 l -1.38047,2.26717 -1.38047,-2.26717 c 0.0815,-0.16021 0.13685,-0.33259 0.13739,-0.51236 a 0.44678305,0.44678305 0 0 0 0,-3.2e-4 0.44678305,0.44678305 0 0 0 0,-3.2e-4 0.44678305,0.44678305 0 0 0 0,-3.3e-4 0.44678305,0.44678305 0 0 0 0,-3.2e-4 c -2e-5,-0.60215 -0.54798,-1.15011 -1.15013,-1.15013 z" />
    <path
       id="path18"
       style="fill:#000000;fill-opacity:1;stroke:none;stroke-width:0.0260784"
       d="m 84.70392,125.58518 a 0.70333401,0.70333401 0 0 0 -0.70332,0.70332 0.70333401,0.70333401 0 0 0 0.55267,0.68523 l 0.23294,3.0187 -1.49076,-1.58105 a 0.70333401,0.70333401 0 0 0 0.1424,-0.42127 0.70333401,0.70333401 0 0 0 -0.70341,-0.70332 0.70333401,0.70333401 0 0 0 -0.70332,0.70332 0.70333401,0.70333401 0 0 0 0.70332,0.70332 0.70333401,0.70333401 0 0 0 0.0238,-0.002 c 0.0798,0.66914 0.27327,2.27419 0.39527,2.99744 0.14939,0.88568 1.77269,1.76678 1.77289,1.76689 -0.0295,0.0198 -0.0553,0.0398 -0.0782,0.06 -0.20513,0.18212 -0.16011,0.38189 -0.26837,0.59327 -0.024,0.047 -0.0557,0.0945 -0.0993,0.14257 -0.0872,0.0961 -0.22245,0.19419 -0.44104,0.2938 0,0 -0.59043,0.73657 -0.24386,1.32243 h 6.60267 c 0.34658,-0.58586 -0.24386,-1.32243 -0.24386,-1.32243 -0.21858,-0.0996 -0.3538,-0.19771 -0.44103,-0.2938 -0.0437,-0.048 -0.0752,-0.0956 -0.0993,-0.14257 -0.10826,-0.21138 -0.0632,-0.41115 -0.26838,-0.59327 -0.0227,-0.0202 -0.0487,-0.0402 -0.0781,-0.06 1.6e-4,-1.1e-4 1.6235,-0.88121 1.77289,-1.76689 0.12199,-0.72325 0.31545,-2.3283 0.39526,-2.99744 a 0.70333401,0.70333401 0 0 0 0.0238,0.002 0.70333401,0.70333401 0 0 0 0.70332,-0.70332 0.70333401,0.70333401 0 0 0 -0.70332,-0.70332 0.70333401,0.70333401 0 0 0 -0.7034,0.70332 0.70333401,0.70333401 0 0 0 0.1424,0.42127 l -1.49076,1.58105 0.23294,-3.0187 a 0.70333401,0.70333401 0 0 0 0.55267,-0.68523 0.70333401,0.70333401 0 0 0 -0.70333,-0.70332 0.70333401,0.70333401 0 0 0 -0.7034,0.70332 0.70333401,0.70333401 0 0 0 0.21802,0.50681 l -1.9077,3.1331 -1.9077,-3.1331 a 0.70333401,0.70333401 0 0 0 0.21801,-0.50681 0.70333401,0.70333401 0 0 0 -0.7034,-0.70332 z" />
    <rect
       style="fill:#787777;fill-opacity:0.02;stroke:none;stroke-width:0.0399656;stroke-dasharray:none"
       id="rect46"
       width="16.893368"
       height="16.893368"
       x="78.650391"
       y="143.88954"
       ry="0"
       inkscape:export-filename="King_BLACK.png"
       inkscape:export-xdpi="96"
       inkscape:export-ydpi="96" />
    <path
       id="path42"
       style="fill:#ffffff;stroke-width:0.0289123"
       d="m 86.35661,146.21653 c -0.36611,-5e-5 -0.63361,0.34574 -0.54161,0.7001 l 0.0647,0.24948 h -0.22318 c -0.30891,6e-5 -0.5593,0.25046 -0.55936,0.55937 v 0.95135 c 0.0247,0.0306 0.0526,0.0584 0.0831,0.0832 -0.28267,-0.0717 -0.57168,-0.12697 -0.87068,-0.13397 -0.89773,-0.021 -1.8667,0.41802 -2.42868,1.47269 -0.39578,0.74277 -0.35566,1.56497 -0.11262,2.28866 0.24301,0.72369 0.67634,1.38553 1.13794,1.96241 0.51557,0.64437 1.02397,1.13505 1.41939,1.48869 -0.25017,0.14817 -0.5497,0.3048 -0.92045,0.46804 -0.0794,0.035 -0.14964,0.0881 -0.20505,0.15495 0,0 -0.21595,0.25559 -0.3696,0.62191 -0.15364,0.36633 -0.27621,0.93952 0.0477,1.46844 0.10172,0.16608 0.28252,0.26731 0.47728,0.26725 h 7.44701 c 0.19477,6e-5 0.37555,-0.10116 0.47728,-0.26725 0.32383,-0.52892 0.20126,-1.10211 0.0476,-1.46844 -0.15364,-0.36632 -0.36959,-0.62191 -0.36959,-0.62191 -0.0553,-0.0669 -0.12561,-0.11991 -0.20506,-0.15495 -0.35957,-0.15832 -0.65411,-0.31066 -0.89982,-0.45489 0.3965,-0.3529 0.90844,-0.84373 1.43503,-1.50184 0.46158,-0.57688 0.89491,-1.23872 1.13793,-1.96241 0.24301,-0.72369 0.28313,-1.54589 -0.11261,-2.28866 -0.5692,-1.06822 -1.55708,-1.50382 -2.46563,-1.47483 -0.28333,0.009 -0.5571,0.0604 -0.8252,0.12758 0.0272,-0.0225 0.0521,-0.0474 0.0746,-0.0746 v -0.95135 c -7e-5,-0.30891 -0.25047,-0.55931 -0.55937,-0.55937 h -0.25943 l 0.0647,-0.24948 c 0.092,-0.35436 -0.17548,-0.70015 -0.5416,-0.7001 z"
       sodipodi:nodetypes="cccccccsssscccsccccscccsssscccccccc" />
    <path
       id="path24"
       style="fill:#000000;fill-opacity:1;stroke:none;stroke-width:0.0289123"
       d="m 86.35653,146.77597 0.24673,0.94968 h -0.94667 v 0.95128 h 0.94667 l -0.14038,1.20121 c -1.28434,-0.6929 -3.12967,-1.31567 -4.08834,0.48349 -1.24252,2.33185 2.86907,5.52809 2.86907,5.52809 -0.35214,0.28404 -0.86537,0.59952 -1.61323,0.9288 0,0 -0.66603,0.80262 -0.27512,1.44108 h 7.44719 c 0.39091,-0.63847 -0.27512,-1.44108 -0.27512,-1.44108 -0.73675,-0.32439 -1.24494,-0.63528 -1.5966,-0.91602 l 0.0199,-0.0128 c 0,0 4.1116,-3.19624 2.86907,-5.52809 -0.97016,-1.82071 -2.86593,-1.16974 -4.12472,-0.45876 l -0.14038,-1.22594 h 0.98297 v -0.95128 H 87.5546 l 0.24673,-0.94968 z m -1.33115,3.83436 c 0.85065,0.002 1.90894,0.99032 1.45113,3.4953 0,0 -2.61364,-1.41637 -2.36932,-2.76404 0.084,-0.46326 0.4726,-0.73253 0.91819,-0.73126 z m 4.29548,0 c 0.44557,-0.001 0.83418,0.268 0.91818,0.73126 0.24433,1.34767 -2.36923,2.76404 -2.36923,2.76404 -0.4578,-2.50498 0.60038,-3.49293 1.45105,-3.4953 z" />
    <rect
       style="fill:#787777;fill-opacity:0.02;stroke:none;stroke-width:0.0399656;stroke-dasharray:none"
       id="rect47"
       width="16.893368"
       height="16.893368"
       x="102.06494"
       y="34.657143"
       ry="0"
       inkscape:export-filename="Pawn_WHITE.png"
       inkscape:export-xdpi="96"
       inkscape:export-ydpi="96" />
    <path
       id="path47"
       style="fill:#000000;fill-opacity:1;stroke-width:0.0287742"
       d="m 110.51231,38.373349 c -0.87915,-10e-6 -1.6005,0.72105 -1.60055,1.60028 a 0.39973101,0.39973101 0 0 0 0,0.002 c 1.4e-4,0.048 0.003,0.0925 0.006,0.13319 0.003,0.0353 0.007,0.0647 0.0104,0.0874 0.002,0.0108 0.003,0.0214 0.004,0.0318 0.0558,0.34859 0.23229,0.65054 0.4746,0.88571 -0.20689,0.17951 -0.35696,0.3175 -0.5738,0.48331 -0.33095,0.25309 -0.40435,0.63237 -0.41307,0.89807 -0.009,0.2657 0.0472,0.48107 0.0472,0.48107 a 0.39973101,0.39973101 0 0 0 0.38779,0.30207 l 0.35153,-2.8e-4 c -0.0164,0.0861 -0.0168,0.15043 -0.0644,0.2706 -0.16602,0.41954 -0.57045,1.04363 -1.58399,1.75201 a 0.39973101,0.39973101 0 0 0 -0.12504,0.14247 c 0,0 -0.64047,1.08837 -0.23632,2.13614 a 0.39973101,0.39973101 0 0 0 0.37288,0.25572 h 5.88269 a 0.39973101,0.39973101 0 0 0 0.37288,-0.25572 c 0.40411,-1.0477 -0.23575,-2.13614 -0.23575,-2.13614 a 0.39973101,0.39973101 0 0 0 -0.12533,-0.14247 c -1.01354,-0.70838 -1.41797,-1.33247 -1.58399,-1.75201 -0.0476,-0.12017 -0.0479,-0.1845 -0.0644,-0.2706 l 0.35153,2.8e-4 a 0.39973101,0.39973101 0 0 0 0.38806,-0.30235 c 0,0 0.0557,-0.21539 0.047,-0.48107 -0.009,-0.26567 -0.0825,-0.64473 -0.41335,-0.89779 -0.21687,-0.16584 -0.36699,-0.3038 -0.57379,-0.48331 0.24264,-0.23548 0.41957,-0.53796 0.47516,-0.88711 a 0.39973101,0.39973101 0 0 0 0,-5.7e-4 c 8.8e-4,-0.008 0.003,-0.0165 0.004,-0.0261 a 0.39973101,0.39973101 0 0 0 5.8e-4,-0.003 c 0.004,-0.0258 0.007,-0.0553 0.0102,-0.0882 0.004,-0.0411 0.006,-0.0855 0.006,-0.13291 a 0.39973101,0.39973101 0 0 0 0,-0.003 c -5e-5,-0.87912 -0.72112,-1.60028 -1.60028,-1.60028 z" />
    <path
       id="path48"
       style="fill:#ffffff;fill-opacity:1;stroke:none;stroke-width:0.0287742;stroke-opacity:0.945513"
       d="m 110.51222,38.772859 c -0.66319,-10e-6 -1.20083,0.5376 -1.20086,1.20078 1.4e-4,0.0336 0.002,0.0668 0.005,0.0999 0.002,0.023 0.005,0.0455 0.008,0.068 8.8e-4,0.007 0.002,0.0147 0.004,0.0219 0.0668,0.41984 0.35018,0.76704 0.73299,0.92258 l -1.4e-4,2.8e-4 c 0,0 -0.59485,0.53066 -0.9837,0.82801 -0.38884,0.29735 -0.22117,0.96391 -0.22117,0.96391 l 0.79016,-4.3e-4 c 0,0 0.2695,1.26342 -1.85772,2.75018 0,0 -0.52611,1.00645 -0.21731,1.80701 h 5.88265 c 0.30878,-0.80056 -0.21732,-1.80702 -0.21732,-1.80702 -2.12722,-1.48676 -1.85772,-2.75017 -1.85772,-2.75017 l 0.79017,4.3e-4 c 0,0 0.16766,-0.66656 -0.22119,-0.96391 -0.38884,-0.29736 -0.98369,-0.82801 -0.98369,-0.82801 l -1.4e-4,-2.9e-4 c 0.38281,-0.15554 0.66614,-0.50274 0.73299,-0.92257 8.8e-4,-0.007 0.003,-0.0146 0.004,-0.022 0.004,-0.0225 0.006,-0.0451 0.008,-0.068 0.003,-0.033 0.004,-0.0663 0.005,-0.0998 -4e-5,-0.66318 -0.53768,-1.20079 -1.20086,-1.20079 z"
       sodipodi:nodetypes="cccccccsccccccccscccccccc" />
    <rect
       style="fill:#787777;fill-opacity:0.02;stroke:none;stroke-width:0.0399656;stroke-dasharray:none"
       id="rect48"
       width="16.893368"
       height="16.893368"
       x="102.06604"
       y="55.29464"
       ry="0"
       inkscape:export-filename="Knight_WHITE.png"
       inkscape:export-xdpi="96"
       inkscape:export-ydpi="96" />
    <path
       id="path49"
       style="fill:#000000;fill-opacity:1;stroke-width:0;stroke-opacity:0.673077"
       d="m 110.22313,56.964248 c -0.39353,-0.0044 -0.76215,0.02813 -1.08354,0.120185 -0.77726,0.222641 -1.26509,0.521796 -1.55679,0.802359 -0.14586,0.140282 -0.24387,0.263585 -0.30703,0.430197 -0.0316,0.08331 -0.0853,0.178173 -0.0135,0.382645 0.0359,0.10224 0.14085,0.232844 0.27182,0.286049 0.13098,0.0532 0.24592,0.03725 0.32088,0.01573 -0.10683,0.03067 -0.12475,0.004 -0.10673,0.01046 0.018,0.0066 0.0667,0.03011 0.12094,0.06776 0.0517,0.03595 0.0991,0.103232 0.15351,0.157627 -0.18735,0.368697 -0.37441,0.732344 -0.37441,0.732344 -0.0394,0.06697 -0.0608,0.142887 -0.0625,0.220527 -6.5e-4,0.0301 -0.004,0.228518 -0.002,0.417467 l -0.44031,1.002667 c -0.0126,0.01869 -0.0937,0.141394 -0.20855,0.267703 -0.0797,0.08767 -0.2348,0.24665 -0.29839,0.508448 -0.0636,0.261799 0.004,0.574041 0.18383,0.860767 0.28806,0.460192 0.77752,0.652605 1.16891,0.623392 0.39138,-0.02922 0.6907,-0.159016 0.89933,-0.474377 l -0.11682,0.120934 c 0.0603,-0.04254 0.08,-0.04004 0.13067,-0.07226 -0.0699,0.07379 -0.12324,0.152511 -0.19581,0.225769 -0.25171,0.25406 -0.50739,0.497147 -0.70165,0.794123 -0.19427,0.296975 -0.31923,0.716639 -0.17073,1.115739 0.0852,0.228861 0.19918,0.344993 0.25759,0.393879 -0.005,0.02652 -0.005,0.04819 -0.0419,0.144521 0.0424,-0.112225 -0.14004,0.08127 -0.16212,0.421211 -0.0156,0.241327 0.11852,0.459703 0.30927,0.672813 -0.10576,0.107652 -0.18384,0.209269 -0.21268,0.251229 -0.0479,0.06969 -0.0285,0.07899 -0.26357,0.17073 -0.0633,0.02478 -0.12019,0.06342 -0.16658,0.113072 0,0 -0.17328,0.180103 -0.29952,0.447045 -0.12625,0.266943 -0.22674,0.720665 0.0442,1.112745 0.0851,0.122916 0.22496,0.196249 0.37441,0.19619 h 5.77451 c 0.14945,5.9e-5 0.2894,-0.07327 0.37441,-0.19619 0.27092,-0.392081 0.17043,-0.845802 0.0442,-1.112745 -0.12624,-0.266942 -0.29952,-0.447045 -0.29952,-0.447045 -0.0464,-0.04966 -0.10338,-0.0883 -0.16662,-0.113071 -0.23515,-0.09175 -0.2157,-0.101043 -0.26358,-0.170731 -0.0313,-0.04555 -0.12253,-0.160587 -0.24524,-0.277812 6.6e-4,-6.7e-4 9.8e-4,-8.18e-4 0.001,-0.0015 0.18106,-0.245021 0.31043,-0.679263 0.1505,-1.136706 -0.0212,-0.06073 -0.0212,-0.07532 -0.0292,-0.110826 0.0165,-0.01078 0.0165,-0.01091 0.036,-0.02359 0.1361,-0.09279 0.21142,-0.251887 0.19693,-0.415969 0.33165,6.88e-4 0.5526,-0.342284 0.41485,-0.643984 -0.1459,-0.278194 -0.15242,-0.432337 -0.14528,-0.632752 0.003,-0.104676 0.0179,-0.230814 0.0203,-0.374409 0.0369,-0.0064 0.0729,-0.01735 0.10705,-0.03258 0.28323,-0.307258 0.48105,-0.713364 0.55936,-1.1412 0.0233,-0.12729 0.0288,-0.259099 0.0198,-0.392755 0.0687,-0.04402 0.12432,-0.1057 0.16099,-0.178593 0.0598,-0.598026 0.0427,-1.02186 -0.0801,-1.348248 0.0721,-0.115991 0.0884,-0.258259 0.0442,-0.387514 -0.0981,-0.280682 -0.27371,-0.674102 -0.55263,-1.015398 -0.0341,-0.04162 -0.0925,-0.06716 -0.13029,-0.10708 0.0177,-0.0763 0.0153,-0.155872 -0.006,-0.231012 -0.25067,-0.482794 -0.44127,-0.7594 -0.74358,-0.902326 -0.0249,-0.01176 -0.039,-0.0089 -0.0621,-0.01835 0.0598,-0.181229 1.4e-4,-0.380514 -0.14939,-0.499087 -0.65292,-0.453417 -1.61478,-0.618467 -2.48046,-0.628259 z"
       sodipodi:nodetypes="sssssscsscccccsssscccsssccscsccsccccsccsccsccccsccsccccsccsccss" />
    <path
       id="path50"
       style="fill:#ffffff;fill-opacity:1;stroke:none;stroke-width:0;stroke-opacity:0.673077"
       d="m 110.21791,57.419295 c -0.36234,-0.0041 -0.69754,0.02929 -0.95304,0.102466 -1.44189,0.41302 -1.69079,1.087071 -1.53532,1.042439 0.17951,-0.05152 0.60434,0.230852 0.84294,0.59774 -0.41314,0.835225 -0.53172,1.037666 -0.53172,1.037666 -0.002,0.09499 -0.0227,0.260134 -0.004,0.507767 l -0.49727,1.132313 c 0,0 -0.1148,0.176021 -0.26781,0.344329 -0.15302,0.168324 -0.33976,0.384098 -0.0658,0.821854 0.41962,0.67036 1.14495,0.379127 1.30348,0.139486 1.13195,-0.798794 1.2624,-0.04102 1.67423,-1.118955 -0.14549,1.69843 -2.28999,2.408348 -1.92277,3.395272 0.13604,0.365613 0.45554,0.221638 0.21496,0.858105 -0.0616,0.162993 -0.37916,0.329712 0.25178,0.840269 l 3.54215,0.02299 c 0,0 0.57169,-0.294489 0.34433,-0.944835 -0.16448,-0.470513 -0.13322,-0.456625 0.18748,-0.665667 -0.44699,-0.514816 -0.37104,-0.462809 -0.20274,-1.166661 0.26013,0.306028 0.32174,0.634165 0.66044,0.699223 -0.36713,-0.700035 -0.0886,-1.078728 -0.21075,-1.54437 l -0.17586,-0.837343 c 0.20642,0.396395 0.21588,0.01497 0.43716,0.822138 0.41372,-0.448823 0.71647,-1.44639 0.17804,-1.630728 -0.24423,-0.08362 -0.39071,-0.205142 -0.24845,-0.339752 0.28141,0.295298 0.31514,-0.160846 0.69229,0.521122 0.15699,-1.567958 -0.38455,-1.571939 -0.68829,-1.449547 -0.12746,0.05138 -0.7602,-0.472177 -0.45423,-0.411211 0.68796,0.383667 0.60711,-0.142079 1.12964,0.32048 -0.16581,-0.474304 -0.67422,-1.465873 -1.28306,-1.200819 -0.22206,0.09668 -0.5187,-0.225717 -0.27707,-0.162768 0.15334,0.146162 0.40052,-0.304548 0.89627,0.06946 -0.47653,-0.917841 -0.55415,-0.668696 -1.18288,-0.844368 -0.64046,-0.108887 0.37181,-0.411214 0.37181,-0.411214 -0.50025,-0.347394 -1.42881,-0.537863 -2.22599,-0.546881 z m -1.2682,2.566883 c 0.0123,-1.55e-4 0.42808,-0.243688 0.43162,0.04823 0.10015,0.02264 -0.34867,0.581114 -0.78939,0.615102 0.15547,-0.320887 0.27154,-0.66184 0.35777,-0.663332 z m -0.28438,7.422957 c -0.3683,0.198097 -0.18757,0.418896 -0.77873,0.649544 0,0 -0.51647,0.551548 -0.21334,0.990248 h 5.77482 c 0.30313,-0.438702 -0.21323,-0.990248 -0.21323,-0.990248 -0.59117,-0.230648 -0.41043,-0.451447 -0.77874,-0.649544 z"
       sodipodi:nodetypes="sscccccccccssccsccccccscccccsccccssccccccccccc" />
    <rect
       style="fill:#787777;fill-opacity:0.02;stroke:none;stroke-width:0.0399656;stroke-dasharray:none"
       id="rect50"
       width="16.893368"
       height="16.893368"
       x="102.06604"
       y="77.114456"
       ry="0"
       inkscape:export-filename="Bishop_WHITE.png"
       inkscape:export-xdpi="96"
       inkscape:export-ydpi="96" />
    <path
       id="path51"
       style="fill:#000000;fill-opacity:1;stroke-width:0.0276116"
       d="m 110.51278,79.800201 c -0.74351,5.4e-5 -1.35722,0.61363 -1.3572,1.3572 a 0.50850044,0.50850044 0 0 0 0,6.69e-4 c 3.5e-4,0.208812 0.0564,0.408149 0.14648,0.591856 -0.5894,0.670027 -1.10588,1.649811 -1.48267,2.653679 -0.22118,0.589326 -0.38561,1.173365 -0.45305,1.698501 -0.0675,0.525139 -0.0869,1.017313 0.24787,1.432934 0.20164,0.250264 0.44971,0.470322 0.7113,0.674264 -0.28554,0.222391 -0.65779,0.466532 -1.26079,0.741323 a 0.50850044,0.50850044 0 0 0 -0.18582,0.144793 c 0,0 -0.19985,0.245475 -0.3413,0.594526 -0.14144,0.349052 -0.25342,0.883126 0.042,1.382557 a 0.50850044,0.50850044 0 0 0 0.43772,0.249553 h 6.99084 a 0.50850044,0.50850044 0 0 0 0.43773,-0.249553 c 0.29545,-0.499432 0.18347,-1.033505 0.0421,-1.382557 -0.14143,-0.349051 -0.34131,-0.594526 -0.34131,-0.594526 a 0.50850044,0.50850044 0 0 0 -0.18582,-0.144793 c -0.603,-0.274792 -0.97524,-0.518932 -1.26077,-0.741323 0.26159,-0.203941 0.50965,-0.423995 0.71129,-0.674264 0.29818,-0.370096 0.30643,-0.805034 0.26657,-1.262116 -0.04,-0.457079 -0.16234,-0.961941 -0.3353,-1.482978 -0.34593,-1.042071 -0.88842,-2.136251 -1.47798,-2.88822 a 0.50850044,0.50850044 0 0 0 -0.18482,-0.09241 c 0.11202,-0.200176 0.1899,-0.417199 0.19015,-0.651241 a 0.50850044,0.50850044 0 0 0 0,-6.69e-4 c 4e-5,-0.743558 -0.61363,-1.357224 -1.3572,-1.3572 z" />
    <path
       id="path52"
       style="fill:#ffffff;fill-opacity:1;stroke:none;stroke-width:0.0276116"
       d="m 110.51268,80.308793 c -0.46871,3.3e-5 -0.84867,0.380021 -0.84865,0.84874 3.5e-4,0.242306 0.10414,0.472943 0.28529,0.633798 -1.16282,1.030849 -2.60087,4.603292 -1.93916,5.424608 0.28354,0.351942 0.70444,0.687255 1.13067,0.95202 -0.30249,0.353269 -0.85451,0.784688 -1.86537,1.245348 0,0 -0.62515,0.779875 -0.25819,1.400178 h 6.99083 c 0.36695,-0.620308 -0.25821,-1.400178 -0.25821,-1.400178 -1.01086,-0.460662 -1.56288,-0.892079 -1.86537,-1.245348 0.42627,-0.264772 0.84712,-0.600059 1.13069,-0.95202 0.58928,-0.731437 -0.48671,-3.643499 -1.5506,-5.000459 -0.95189,1.115186 -1.24836,3.702649 -1.24836,3.702649 L 109.703,85.640788 c 0.0276,-1.09204 0.57337,-3.025083 1.32801,-3.80535 l 0.0452,-0.04411 c 0.18122,-0.160854 0.28502,-0.391491 0.28528,-0.633797 2e-5,-0.468752 -0.37998,-0.848756 -0.84873,-0.84874 z"
       sodipodi:nodetypes="cccsccccccsccccccc" />
    <rect
       style="fill:#787777;fill-opacity:0.02;stroke:none;stroke-width:0.0399656;stroke-dasharray:none"
       id="rect52"
       width="16.893368"
       height="16.893368"
       x="102.06604"
       y="98.934273"
       ry="0"
       inkscape:export-filename="Rook_WHITE.png"
       inkscape:export-xdpi="96"
       inkscape:export-ydpi="96" />
    <path
       id="path53"
       style="fill:#000000;fill-opacity:1;stroke-width:0.0284084"
       d="m 107.15563,101.61834 c -0.28587,1.2e-4 -0.5176,0.23184 -0.51772,0.51773 v 1.20346 c -7.6e-4,7.4e-4 -0.001,0.002 -0.002,0.002 v 1.6155 c -6e-5,0.14911 0.0641,0.29102 0.17617,0.38941 l 1.54764,1.357 -0.73522,3.61739 c -0.20775,0.14418 -0.35774,0.37497 -0.49941,0.61829 -0.07,0.10184 -0.0688,0.13602 -0.39794,0.26443 -0.0721,0.0282 -0.13673,0.0722 -0.18951,0.12869 0,0 -0.22407,0.23356 -0.38682,0.57744 -0.16274,0.34388 -0.28835,0.91182 0.0515,1.40374 0.0968,0.13987 0.25605,0.22332 0.42613,0.22326 h 7.77337 c 0.1701,6e-5 0.32936,-0.0834 0.42612,-0.22326 0.33991,-0.49192 0.2143,-1.05986 0.0515,-1.40374 -0.16275,-0.34388 -0.38681,-0.57744 -0.38681,-0.57744 -0.0527,-0.0565 -0.11753,-0.10048 -0.18952,-0.12869 -0.32915,-0.12842 -0.32825,-0.16254 -0.39832,-0.26443 -0.0504,-0.0733 -0.18347,-0.24032 -0.36789,-0.40128 l -0.83,-3.83291 1.54949,-1.35849 c 0.11202,-0.0984 0.17622,-0.2403 0.17614,-0.38941 v -1.6155 c -5.5e-4,-4.9e-4 -9.4e-4,-9.9e-4 -0.001,-0.002 v -1.17009 c -1.3e-4,-0.28588 -0.23185,-0.51761 -0.51773,-0.51773 h -1.43526 c -0.27983,0.004 -0.50565,0.23011 -0.50994,0.50994 v -0.0248 c -1.2e-4,-0.28588 -0.23185,-0.51761 -0.51774,-0.51773 h -1.92664 c -0.19208,0.0448 -0.34204,0.19475 -0.38682,0.38682 -0.0445,-0.19304 -0.19527,-0.34378 -0.3883,-0.3883 z"
       sodipodi:nodetypes="cccccccccccsccccsccsccccccccccsccccc" />
    <path
       id="path54"
       style="fill:#ffffff;fill-opacity:1;stroke:none;stroke-width:0.0284084"
       d="m 107.15551,102.13605 v 1.20576 h -0.002 v 1.61554 l 1.77852,1.55941 -0.95918,4.29524 h -0.009 c -0.49576,0.26665 -0.25242,0.56382 -1.04818,0.87429 0,0 -0.69525,0.74241 -0.28721,1.33294 h 7.77349 c 0.40803,-0.59053 -0.28721,-1.33294 -0.28721,-1.33294 -0.79577,-0.31047 -0.55241,-0.60764 -1.04817,-0.87429 v 0 l -0.93011,-4.29524 1.77842,-1.55941 v -1.61554 h -10e-4 v -1.17171 h -1.43517 v 1.15562 l -1.02787,-0.0115 v -1.17653 h -1.92673 v 1.17682 l -0.7749,0.009 V 102.136 Z"
       sodipodi:nodetypes="ccccccccccccccccccccccccccc" />
    <rect
       style="fill:#787777;fill-opacity:0.02;stroke:none;stroke-width:0.0399656;stroke-dasharray:none"
       id="rect54"
       width="16.893368"
       height="16.893368"
       x="102.06604"
       y="122.67995"
       ry="0"
       inkscape:export-filename="Queen_WHITE.png"
       inkscape:export-xdpi="96"
       inkscape:export-ydpi="96" />
    <path
       id="path55"
       style="fill:#000000;fill-opacity:1;stroke-width:0.0260784"
       d="m 108.11951,125.53843 c -0.60215,2e-5 -1.15011,0.54798 -1.15013,1.15013 a 0.44678305,0.44678305 0 0 0 0,0.001 c 0.001,0.39795 0.23685,0.77546 0.57444,0.98155 l 0.11501,1.49422 -0.41468,-0.43988 c 0.0335,-0.10818 0.0556,-0.22044 0.0561,-0.3337 a 0.44678305,0.44678305 0 0 0 0,-3.2e-4 0.44678305,0.44678305 0 0 0 0,-9.5e-4 0.44678305,0.44678305 0 0 0 0,-6.3e-4 c -1e-5,-0.60215 -0.54798,-1.15011 -1.15013,-1.15013 -0.60215,2e-5 -1.15011,0.54798 -1.15012,1.15013 1e-5,0.47064 0.33765,0.89829 0.77137,1.06694 0.0907,0.75547 0.24336,2.03077 0.35733,2.70643 0.11479,0.68054 0.65064,1.1365 1.10822,1.49327 0.24223,0.18887 0.30396,0.20968 0.47234,0.31353 -0.0146,0.0369 -0.0374,0.0796 -0.046,0.11029 -0.0379,0.13434 -0.0489,0.19277 -0.0655,0.2253 -0.007,0.0143 -0.015,0.0264 -0.0325,0.0457 -0.0346,0.0381 -0.11408,0.10493 -0.29525,0.18749 a 0.44678305,0.44678305 0 0 0 -0.16322,0.12699 c 0,0 -0.18577,0.22869 -0.31731,0.55332 -0.13155,0.32463 -0.23418,0.81693 0.0375,1.27617 a 0.44678305,0.44678305 0 0 0 0.38442,0.21931 h 6.60268 a 0.44678305,0.44678305 0 0 0 0.38443,-0.21931 c 0.27167,-0.45924 0.16904,-0.95154 0.0375,-1.27617 -0.13155,-0.32463 -0.31731,-0.55332 -0.31731,-0.55332 a 0.44678305,0.44678305 0 0 0 -0.16322,-0.12699 c -0.18132,-0.0826 -0.26133,-0.14977 -0.29557,-0.18749 -0.0174,-0.0192 -0.0252,-0.0314 -0.0325,-0.0457 -0.0167,-0.0325 -0.0276,-0.091 -0.0655,-0.2253 -0.009,-0.0304 -0.0313,-0.0728 -0.0457,-0.10934 0.15981,-0.0979 0.22033,-0.11771 0.47234,-0.31416 0.45767,-0.35677 0.99342,-0.81299 1.10822,-1.49359 0.11398,-0.67577 0.26641,-1.95105 0.35701,-2.70643 0.43386,-0.16857 0.77168,-0.59619 0.77169,-1.06694 -2e-5,-0.60205 -0.54778,-1.14992 -1.14981,-1.15013 h -3.2e-4 c -0.60221,-6e-5 -1.15044,0.54791 -1.15045,1.15013 a 0.44678305,0.44678305 0 0 0 0,0.002 c 4.8e-4,0.11325 0.0226,0.22551 0.0561,0.33369 l -0.41468,0.43989 0.11501,-1.49422 c 0.33759,-0.20609 0.57332,-0.5836 0.57444,-0.98155 a 0.44678305,0.44678305 0 0 0 0,-3.2e-4 0.44678305,0.44678305 0 0 0 0,-3.3e-4 0.44678305,0.44678305 0 0 0 0,-3.2e-4 0.44678305,0.44678305 0 0 0 0,-3.2e-4 c -2e-5,-0.60215 -0.54798,-1.15011 -1.15013,-1.15013 -0.60215,2e-5 -1.15011,0.54798 -1.15013,1.15013 a 0.44678305,0.44678305 0 0 0 0,0.002 c 6.5e-4,0.17972 0.0563,0.3519 0.1377,0.51204 l -1.38047,2.26717 -1.38047,-2.26717 c 0.0815,-0.16021 0.13685,-0.33259 0.13739,-0.51236 a 0.44678305,0.44678305 0 0 0 0,-3.2e-4 0.44678305,0.44678305 0 0 0 0,-3.2e-4 0.44678305,0.44678305 0 0 0 0,-3.3e-4 0.44678305,0.44678305 0 0 0 0,-3.2e-4 c -2e-5,-0.60215 -0.54798,-1.15011 -1.15013,-1.15013 z" />
    <path
       id="path56"
       style="fill:#ffffff;fill-opacity:1;stroke:none;stroke-width:0.0260784"
       d="m 108.11954,125.98511 a 0.70333401,0.70333401 0 0 0 -0.70332,0.70332 0.70333401,0.70333401 0 0 0 0.55267,0.68523 l 0.23294,3.0187 -1.49076,-1.58105 a 0.70333401,0.70333401 0 0 0 0.1424,-0.42127 0.70333401,0.70333401 0 0 0 -0.70341,-0.70332 0.70333401,0.70333401 0 0 0 -0.70332,0.70332 0.70333401,0.70333401 0 0 0 0.70332,0.70332 0.70333401,0.70333401 0 0 0 0.0238,-0.002 c 0.0798,0.66914 0.27327,2.27419 0.39527,2.99744 0.14939,0.88568 1.77269,1.76678 1.77289,1.76689 -0.0295,0.0198 -0.0553,0.0398 -0.0782,0.06 -0.20513,0.18212 -0.16011,0.38189 -0.26837,0.59327 -0.024,0.047 -0.0557,0.0945 -0.0993,0.14257 -0.0872,0.0961 -0.22245,0.19419 -0.44104,0.2938 0,0 -0.59043,0.73657 -0.24386,1.32243 h 6.60267 c 0.34658,-0.58586 -0.24386,-1.32243 -0.24386,-1.32243 -0.21858,-0.0996 -0.3538,-0.19771 -0.44103,-0.2938 -0.0437,-0.0481 -0.0752,-0.0956 -0.0993,-0.14257 -0.10826,-0.21138 -0.0632,-0.41115 -0.26838,-0.59327 -0.0227,-0.0202 -0.0487,-0.0403 -0.0781,-0.06 1.6e-4,-1.1e-4 1.6235,-0.88121 1.77289,-1.76689 0.12199,-0.72325 0.31545,-2.3283 0.39526,-2.99744 a 0.70333401,0.70333401 0 0 0 0.0238,0.002 0.70333401,0.70333401 0 0 0 0.70332,-0.70332 0.70333401,0.70333401 0 0 0 -0.70332,-0.70332 0.70333401,0.70333401 0 0 0 -0.7034,0.70332 0.70333401,0.70333401 0 0 0 0.1424,0.42127 l -1.49076,1.58105 0.23294,-3.0187 a 0.70333401,0.70333401 0 0 0 0.55267,-0.68523 0.70333401,0.70333401 0 0 0 -0.70333,-0.70332 0.70333401,0.70333401 0 0 0 -0.7034,0.70332 0.70333401,0.70333401 0 0 0 0.21802,0.50681 l -1.9077,3.1331 -1.9077,-3.1331 a 0.70333401,0.70333401 0 0 0 0.21801,-0.50681 0.70333401,0.70333401 0 0 0 -0.7034,-0.70332 z" />
    <rect
       style="fill:#787777;fill-opacity:0.02;stroke:none;stroke-width:0.0399656;stroke-dasharray:none"
       id="rect56"
       width="16.893368"
       height="16.893368"
       x="102.06604"
       y="144.28946"
       ry="0"
       inkscape:export-filename="King_WHITE.png"
       inkscape:export-xdpi="96"
       inkscape:export-ydpi="96" />
    <path
       id="path57"
       style="fill:#000000;fill-opacity:1;stroke-width:0.0289123"
       d="m 109.77223,146.61646 c -0.36611,-5e-5 -0.63361,0.34574 -0.54161,0.7001 l 0.0647,0.24948 h -0.22318 c -0.30891,6e-5 -0.5593,0.25046 -0.55936,0.55937 v 0.95135 c 0.0247,0.0306 0.0526,0.0584 0.0831,0.0832 -0.28267,-0.0717 -0.57168,-0.12697 -0.87068,-0.13397 -0.89773,-0.021 -1.8667,0.41802 -2.42868,1.47269 -0.39578,0.74277 -0.35566,1.56497 -0.11262,2.28866 0.24301,0.72369 0.67634,1.38553 1.13794,1.96241 0.51557,0.64437 1.02397,1.13505 1.41939,1.48869 -0.25017,0.14817 -0.5497,0.3048 -0.92045,0.46804 -0.0794,0.035 -0.14964,0.0881 -0.20505,0.15495 0,0 -0.21595,0.25559 -0.3696,0.62191 -0.15364,0.36633 -0.27621,0.93952 0.0477,1.46844 0.10172,0.16608 0.28252,0.26731 0.47728,0.26725 h 7.44701 c 0.19477,6e-5 0.37555,-0.10116 0.47728,-0.26725 0.32383,-0.52892 0.20126,-1.10211 0.0476,-1.46844 -0.15364,-0.36632 -0.36959,-0.62191 -0.36959,-0.62191 -0.0553,-0.0669 -0.12561,-0.11991 -0.20506,-0.15495 -0.35957,-0.15832 -0.65411,-0.31066 -0.89982,-0.45489 0.3965,-0.3529 0.90844,-0.84373 1.43503,-1.50184 0.46158,-0.57688 0.89491,-1.23872 1.13793,-1.96241 0.24301,-0.72369 0.28313,-1.54589 -0.11261,-2.28866 -0.5692,-1.06822 -1.55708,-1.50382 -2.46563,-1.47483 -0.28333,0.009 -0.5571,0.0604 -0.8252,0.12758 0.0272,-0.0225 0.0521,-0.0475 0.0746,-0.0746 v -0.95135 c -7e-5,-0.30891 -0.25047,-0.55931 -0.55937,-0.55937 h -0.25943 l 0.0647,-0.24948 c 0.092,-0.35436 -0.17548,-0.70015 -0.5416,-0.7001 z"
       sodipodi:nodetypes="cccccccsssscccsccccscccsssscccccccc" />
    <path
       id="path58"
       style="fill:#ffffff;fill-opacity:1;stroke:none;stroke-width:0.0289123"
       d="m 109.77215,147.1759 0.24673,0.94968 h -0.94667 v 0.95128 h 0.94667 l -0.14038,1.20121 c -1.28434,-0.6929 -3.12967,-1.31567 -4.08834,0.48349 -1.24252,2.33185 2.86907,5.52809 2.86907,5.52809 -0.35214,0.28404 -0.86537,0.59952 -1.61323,0.9288 0,0 -0.66603,0.80262 -0.27512,1.44108 h 7.44719 c 0.39091,-0.63847 -0.27512,-1.44108 -0.27512,-1.44108 -0.73675,-0.32439 -1.24494,-0.63528 -1.5966,-0.91602 l 0.0199,-0.0128 c 0,0 4.1116,-3.19624 2.86907,-5.52809 -0.97016,-1.82071 -2.86593,-1.16974 -4.12472,-0.45876 l -0.14038,-1.22594 h 0.98297 v -0.95128 h -0.98297 l 0.24673,-0.94968 z m -1.33115,3.83436 c 0.85065,0.002 1.90894,0.99032 1.45113,3.4953 0,0 -2.61364,-1.41637 -2.36932,-2.76404 0.084,-0.46326 0.4726,-0.73253 0.91819,-0.73126 z m 4.29548,0 c 0.44557,-10e-4 0.83418,0.268 0.91818,0.73126 0.24433,1.34767 -2.36923,2.76404 -2.36923,2.76404 -0.4578,-2.50498 0.60038,-3.49293 1.45105,-3.4953 z" />
  </g>
</svg>
